<?xml version="1.0" encoding="utf-8"?>
<!-- Generator: Adobe Illustrator 26.1.0, SVG Export Plug-In . SVG Version: 6.00 Build 0)  -->
<svg version="1.1" id="Livello_1" xmlns="http://www.w3.org/2000/svg"
	xmlns:xlink="http://www.w3.org/1999/xlink" x="0px" y="0px"
	viewBox="0 0 256 256" style="enable-background:new 0 0 256 256;" xml:space="preserve">
<style type="text/css">
	.st0{fill:transparent;}
	.st1{fill:#FFFFFF;}
	.st2{fill:#737373;}
	.st3{fill:#a3a3a3;}
	.st4{clip-path:url(#SVGID_00000031178086389974117610000005330269314364806828_);fill:#737373;}
</style>
<path class="st0" d="M232.9,233.2c-22,22-187,23-210,0s-22-187,0-210s187-23,210,0S254.9,211.2,232.9,233.2z"/>
<path class="st1" d="M210.6,101.1c-12,0.9-24,1.8-36,2.7c-5.1,11.1-10.2,22.2-15.3,33.3C176.4,125.1,193.5,113.1,210.6,101.1z"/>
<path class="st1" d="M205.6,114.6h-81.9c-13.2,0-23.9-10.7-23.9-23.9V52.1c0-13.2,10.7-23.9,23.9-23.9h81.9
	c13.2,0,23.9,10.7,23.9,23.9v38.7C229.5,104,218.8,114.6,205.6,114.6z"/>
<ellipse class="st2" cx="102.6" cy="137" rx="35.9" ry="35.9"/>
<rect x="114.3" y="42.6" class="st3" width="100.8" height="10.8"/>
<rect x="114.3" y="64.2" class="st3" width="100.8" height="10.8"/>
<rect x="114.3" y="85.8" class="st3" width="100.8" height="10.8"/>
<g>
	<defs>
		<path id="SVGID_1_" d="M163.2,212.6c-1.6-39.6-119.4-39.5-121,0l0,0L42,256h121L163.2,212.6L163.2,212.6z"/>
	</defs>
	<clipPath id="SVGID_00000052808002435593568440000017196072615606303398_">
		<use xlink:href="#SVGID_1_"  style="overflow:visible;"/>
	</clipPath>
	<path style="clip-path:url(#SVGID_00000052808002435593568440000017196072615606303398_);fill:#737373;" d="M233,233
		c-22,22-187,23-210,0S1,46,23,23s187-23,210,0S255,211,233,233z"/>
</g>
</svg>